<?xml version="1.0" standalone="no"?>
<!DOCTYPE svg PUBLIC "-//W3C//DTD SVG 20010904//EN"
 "http://www.w3.org/TR/2001/REC-SVG-20010904/DTD/svg10.dtd">
<svg version="1.0" xmlns="http://www.w3.org/2000/svg"
 width="512.000000pt" height="512.000000pt" viewBox="0 0 512.000000 512.000000"
 preserveAspectRatio="xMidYMid meet">
<metadata>
Created by potrace 1.14, written by Peter Selinger 2001-2017
</metadata>
<g transform="translate(0.000000,512.000000) scale(0.100000,-0.100000)"
fill="#000000" stroke="none">
<path d="M2527 4454 c-1 -1 -40 -5 -87 -8 -594 -46 -1097 -380 -1334 -888 -70
-151 -121 -319 -141 -468 -3 -25 -8 -57 -11 -71 -13 -69 -6 -361 12 -453 2
-11 6 -38 9 -61 17 -118 81 -308 149 -445 98 -195 200 -335 355 -487 l104
-103 -104 0 c-57 0 -215 -1 -352 -1 l-247 -1 2 -242 3 -241 690 0 c380 -1 697
1 705 3 13 3 16 30 15 188 0 165 -2 187 -18 195 -70 40 -278 238 -311 296 -5
10 -15 24 -22 31 -7 7 -38 52 -68 101 -183 296 -278 623 -279 956 0 86 9 213
18 245 2 8 6 31 9 50 34 221 161 475 316 631 133 134 290 219 465 254 90 18
278 13 373 -10 12 -3 30 -7 40 -9 64 -16 162 -62 229 -107 l42 -29 410 0 c226
0 411 3 411 6 0 3 -24 38 -54 77 -226 297 -545 488 -941 562 -16 3 -41 7 -55
10 -43 8 -327 24 -333 19z"/>
<path d="M3330 3517 c0 -1 22 -45 48 -97 27 -52 54 -110 60 -127 l11 -33 340
0 c266 0 341 3 341 13 -1 18 -45 166 -63 210 l-16 37 -360 0 c-199 0 -361 -1
-361 -3z"/>
<path d="M3516 2992 c-2 -4 0 -27 4 -52 9 -45 6 -343 -3 -411 -17 -124 -43
-238 -84 -359 -39 -116 -146 -325 -220 -429 -82 -114 -219 -260 -302 -321 -33
-25 -63 -54 -67 -65 -9 -25 -11 -329 -3 -353 6 -16 55 -17 702 -17 554 0 697
2 698 12 0 7 1 105 1 218 0 113 -1 216 -1 229 l-1 25 -337 0 c-186 0 -347 0
-357 1 -14 0 9 28 79 98 314 312 495 686 541 1114 8 74 12 251 6 289 l-4 29
-324 0 c-177 0 -325 -3 -328 -8z"/>
</g>
</svg>
