<svg width="2028.4mm" height="673.1mm" version="1.1" viewBox="0 0 2028.4 673.1" xmlns="http://www.w3.org/2000/svg"><g><g transform="matrix(2.6686 0 0 2.6686 -262.98 -927.46)" stroke-width=".1322"></g><path d="m1648.7 0.5405-22.551 0.89865 112.98 328.59 10.027-3.6499zm115.68 91.175 3.2561 227.93 3.5409-1.2893 9.5213 15.654 4.6158-242.29zm-203.31 0.52245-27.133 3.4654 48.092 73.357 13.603-19.493zm-131.83 60.434-13.956 12.212 311.38 251.01-4.9625-13.634zm174.88 10.957-13.221 18.946 6.211 9.4738 16.277 5.8648 22.724 18.779zm222.99 39.393-18.297 91.913 4.8746-0.91054 18.756-88.886zm-213.01 14.938 118.06 180.09 3.8726-1.4092-5.5816-15.336-1.6629-10.885-69.299-114.95zm233.91 42.188-6.505 17.837 6.7309 7.8181 8.9255-23.53zm33.163 33.805-26.868 59.638 13.272-4.8307 23.598-47.482zm-45.557 0.17933-7.7675 21.299 8.5266-2.8732 4.5563-12.25zm-501.83 20.27-1.7446 13.956 426.71 135.54-395.66-48.772-0.4548 9.5901 399.4 43.339-4.5181-12.413zm497.67 15.643-10.188 3.4339-13.514 37.056 9.6795-3.5233zm-27.314 9.2072-4.4519 1.5007-3.7935 19.057 2.4737 6.7954zm-50.559 1.4743-9.5751 3.4846 25.025 72.785 0.2951 20.662-18.379-30.486-10.145 3.6923 0.2987 0.82113 10.607 16.178-6.843-5.8399 3.9631 10.887 14.455-5.2617 13.156 36.142 7.0874-2.5797-3.7935-6.2926 0.6175-2.9259 3.9445 2.3776 26.113-68.841-9.3674 3.4091-17.524 48.053 9.525-45.141-1.2769 0.46459-1.5131-4.1563-8.6501 43.454-2.5963-8.4202 1.1659-61.195-12.211-20.076 0.6806 47.65zm-164.65 15.473-4.8307 3.2933 15.263 7.8858zm401.96 1.9885-164.77 84.644 1.7668 4.854 167.95-82.42zm-375.95 4.8064 11.215 18.226 108.26 55.932-3.0122-8.275zm242.96 5.2524-12.19 4.4364-13.454 29.863 10.495-3.8204zm-24.833 49.967-9.4128 3.4261-2.9022 6.4415 3.1332 8.6083zm192.21 3.8334-193.35 36.735 0.2496 0.68625-19.174 6.9784 215.3-37.59zm-101.9 0.6015-94.183 28.616 1.1911 3.2722 95.317-26.257zm-144.54 9.6909 2.5905 0.17568-2.868 14.408zm33.084 15.342-1.4325 3.1791-3.5951 1.8469 6.0544-2.204z" fill="#ff1f1f"/><g fill="#fff"><path d="m1799.2 473.1h176.92v30.769l-146.15 46.154v92.308l53.846 7.6922v23.077h-192.31v-23.077l46.154-7.6922v-61.539h61.538v-38.462l7.6923-30.769-15.385-23.077z"/><path d="m1741.7 593.64 13.155 36.142 57.827-21.047-13.155-36.142-13.014-35.756-3.4358-31.93-22.35-16.423 1.9666-17.088-159.03 57.88 13.155 36.142s101.2-36.833 124.88 28.223z"/><path d="m1768 327.51 20.383 33.51 7.8928 21.685 130.11-47.357 13.155 36.142-130.11 47.357 13.155 36.142-50.599 18.416-13.155-36.142-14.457 5.2618-13.155-36.142 14.457-5.2618-7.893-21.685-5.9256-38.772z"/></g><g fill="#ff1f1f"><path d="m1590 346.38 17.27 18.503 9.8684 16.036-54.276-16.036z"/><path d="m1630.8 189.13 30.079 11.986-10.707 14.047 1.6728 24.241-42.205-34.877-34.504-12.433 29.362-42.075 31.553 4.2255z"/><path d="m1812.9 301.8 11.136-2.0797 1.1188-9.0753 7.9814-10.868 16.354 18.998-7.347 19.751-36.894 12.436-0.658-15.548z"/><path transform="scale(.26458)" d="m0 470.4v1036.8h296.23 740.57 296.23v-611.38l370.29 366.99 370.29-366.99v611.38h296.23 404.35c201.44 0 336.22-134.78 336.22-337.7 0-102.17-34.69-187.17-95.144-246.15 13.762-38.134 21.088-80.783 21.088-127.1 0-195.51-130.34-325.85-325.85-325.85h-340.66-296.23l-370.29 362.88-370.29-362.88h-296.23-740.57-296.23zm3110.4 0v1036.8h296.23 740.57 296.23v-296.23h54.801l300.67 296.23h385.1l-296.94-301.98c180.82-29.197 296.94-167.83 296.94-364.54 0-222.17-148.12-370.29-370.29-370.29h-370.29-296.23-740.57-296.23zm-2814.2 288.82h740.57v459.16h-740.57v-96.273h518.4v-288.82h-518.4v-74.061zm3110.4 0h740.57v459.16h-740.57v-96.273h518.4v-288.82h-518.4v-74.061zm-1036.8 0.00195h340.66c22.217 0 37.027 14.81 37.027 37.027 0 22.217-14.81 37.029-37.027 37.029h-340.66v-74.057zm2073.6 0h370.29c44.434 0 74.059 32.585 74.059 81.463 0 48.878-29.624 81.463-74.059 81.463h-370.29v-162.93zm-2073.6 362.88h404.35c28.142 0 47.398 19.255 47.398 47.396 0 29.623-19.257 48.877-47.398 48.877h-404.35v-96.273z"/></g><path transform="scale(.26458)" d="m407.31 1507.2c-183.66 0-333.26 142.19-333.26 325.85s149.6 325.85 333.26 325.85h296.23c25.179 0 44.436 23.698 44.436 47.396 0 25.18-19.256 48.877-44.436 48.877h-703.54v288.82h703.54c185.14 0 333.26-151.08 333.26-337.7 0-183.66-148.11-336.22-333.26-336.22h-296.23c-23.698 0-44.434-13.329-44.434-37.027s20.735-37.029 44.434-37.029h629.49v410.28 337.7h296.23v-296.23h430.68c159.65 0 281.05-76.48 336.74-201.96l-177.92 498.19h322.89l83.193-229.58h375.71l83.193 229.58h322.89l-370.29-1036.8h-447.31l-174.12 487.53c10.029-36.12 15.297-75.364 15.297-117.24 0-222.17-148.11-370.29-370.29-370.29h-430.68-296.23-629.49zm2703.1 1036.8h296.23v-296.23h54.803l300.67 296.23h385.1l-296.94-301.98c180.82-29.197 296.94-167.83 296.94-364.54 0-222.17-148.11-370.29-370.29-370.29h-370.29-296.23v1036.8zm1036.8-666.52v666.52h296.23v-333.55l355.47 333.55h385.1l-536.18-518.4 536.18-518.4h-385.1l-355.47 333.55v-333.55h-296.23v370.29zm-2814.2-81.463h430.68c44.434 0 74.057 32.585 74.057 81.463s-29.622 81.463-74.057 81.463h-430.68v-162.93zm1183.4 0 93.93 259.2h-187.86l93.928-259.2zm890.17 0h370.29c44.434 0 74.057 32.585 74.057 81.463s-29.622 81.463-74.057 81.463h-370.29v-162.93z" fill="#fff"/></g></svg>
